<svg width="140" height="41" viewBox="0 0 140 41" fill="none" xmlns="http://www.w3.org/2000/svg">
  <path d="M6.66602 36.9295C9.51238 39.1016 13.068 40.3917 16.9249 40.3917C26.2729 40.3917 33.8509 32.8136 33.8509 23.4656V8.07833C33.8509 3.61679 30.2341 0 25.7726 0C21.736 0 18.4636 3.27234 18.4636 7.30897V26.5431C18.4636 32.2794 13.8135 36.9295 8.07719 36.9295H6.66602Z" fill="#EF233C"/>
  <circle cx="7.69365" cy="26.159" r="7.69365" fill="#D90429"/>
  <path d="M48.7069 39.2085C47.6611 39.2796 46.8593 39.1196 46.3015 38.7285C45.7437 38.3374 45.4648 37.7508 45.4648 36.9686C45.4648 35.5819 46.2143 34.8353 47.7133 34.7286L49.3344 34.622C50.9728 34.5509 52.1929 34.0531 52.9947 33.1287C53.7965 32.1687 54.1974 30.6754 54.1974 28.6488V3.84943C54.1974 3.03167 54.4414 2.37391 54.9295 1.87615C55.4524 1.34283 56.1147 1.07617 56.9165 1.07617C57.7532 1.07617 58.4155 1.34283 58.9036 1.87615C59.3916 2.37391 59.6357 3.03167 59.6357 3.84943V28.6488C59.6357 31.9909 58.8513 34.5331 57.2826 36.2753C55.7487 37.9819 53.4305 38.9241 50.3279 39.1018L48.7069 39.2085Z" fill="#2B2D42"/>
  <path d="M78.6601 39.3152C76.1502 39.3152 73.9365 38.7641 72.0192 37.6619C70.1367 36.5597 68.6726 34.9953 67.6268 32.9687C66.6158 30.9065 66.1103 28.5243 66.1103 25.8222C66.1103 23.0845 66.6158 20.7023 67.6268 18.6757C68.6726 16.6135 70.1367 15.0314 72.0192 13.9292C73.9365 12.827 76.1502 12.2759 78.6601 12.2759C81.1701 12.2759 83.3663 12.827 85.2488 13.9292C87.1661 15.0314 88.6303 16.6135 89.6412 18.6757C90.687 20.7023 91.2099 23.0845 91.2099 25.8222C91.2099 28.5243 90.687 30.9065 89.6412 32.9687C88.6303 34.9953 87.1661 36.5597 85.2488 37.6619C83.3663 38.7641 81.1701 39.3152 78.6601 39.3152ZM78.6601 35.0486C80.9958 35.0486 82.7737 34.2664 83.9938 32.702C85.2488 31.1376 85.8763 28.8443 85.8763 25.8222C85.8763 22.8356 85.2488 20.5601 83.9938 18.9957C82.7388 17.3957 80.9609 16.5958 78.6601 16.5958C76.3593 16.5958 74.5814 17.3957 73.3265 18.9957C72.0715 20.5601 71.444 22.8356 71.444 25.8222C71.444 28.8443 72.0541 31.1376 73.2742 32.702C74.5292 34.2664 76.3245 35.0486 78.6601 35.0486Z" fill="#2B2D42"/>
  <path d="M118.529 34.7286C119.157 35.2619 119.471 35.9197 119.471 36.7019C119.471 37.3774 119.244 37.9641 118.791 38.4619C118.338 38.9596 117.797 39.2085 117.17 39.2085C116.508 39.2085 115.915 38.9596 115.392 38.4619L102.372 26.7288V36.5952C102.372 37.4486 102.128 38.1063 101.64 38.5685C101.151 38.9952 100.524 39.2085 99.757 39.2085C98.9901 39.2085 98.3452 38.9952 97.8223 38.5685C97.3342 38.1063 97.0902 37.4486 97.0902 36.5952V3.68944C97.0902 2.83613 97.3342 2.19614 97.8223 1.76949C98.3452 1.30728 98.9901 1.07617 99.757 1.07617C100.524 1.07617 101.151 1.30728 101.64 1.76949C102.128 2.19614 102.372 2.83613 102.372 3.68944V24.5956L114.294 13.2359C114.887 12.7025 115.462 12.4359 116.019 12.4359C116.682 12.4359 117.257 12.6848 117.745 13.1825C118.233 13.6803 118.477 14.2669 118.477 14.9425C118.477 15.618 118.181 16.2402 117.588 16.8091L108.28 25.5022L118.529 34.7286Z" fill="#2B2D42"/>
  <path d="M137.49 12.3825C139.164 12.2759 140 13.0047 140 14.5692C140 15.3514 139.808 15.938 139.425 16.3291C139.041 16.7202 138.379 16.9513 137.438 17.0224L135.869 17.1824C133.673 17.3957 132.035 18.1779 130.954 19.529C129.908 20.8801 129.385 22.5156 129.385 24.4356V36.6486C129.385 37.5019 129.141 38.1419 128.653 38.5685C128.165 38.9952 127.537 39.2085 126.771 39.2085C126.004 39.2085 125.359 38.9952 124.836 38.5685C124.348 38.1419 124.104 37.5019 124.104 36.6486V14.9425C124.104 14.1247 124.348 13.5025 124.836 13.0759C125.359 12.6136 126.004 12.3825 126.771 12.3825C127.468 12.3825 128.043 12.6136 128.496 13.0759C128.984 13.5025 129.228 14.1069 129.228 14.8891V17.4491C129.925 15.8847 130.936 14.6936 132.261 13.8758C133.586 13.0581 135.085 12.5781 136.758 12.4359L137.49 12.3825Z" fill="#2B2D42"/>
</svg>
